Coordinates
version=1
nRows=26
nColumns=24
inDegrees=yes

Units are S.I. units (second, meters, Newtons, ...)
Angles are in degrees.

endheader
time	pelvis_tilt	pelvis_list	pelvis_rotation	pelvis_tx	pelvis_ty	pelvis_tz	hip_flexion_r	hip_adduction_r	hip_rotation_r	knee_angle_r	ankle_angle_r	subtalar_angle_r	mtp_angle_r	hip_flexion_l	hip_adduction_l	hip_rotation_l	knee_angle_l	ankle_angle_l	subtalar_angle_l	mtp_angle_l	lumbar_extension	lumbar_bending	lumbar_rotation
      5.24000000	     14.46104742	      9.91732046	     -0.45595654	      0.57171468	      0.75488469	     -0.31841047	     10.21107572	    -13.98651362	     -2.66417796	    -68.41552661	     13.40825430	    -12.13560604	      0.00000000	     -8.15397208	     16.61581490	      1.35964855	    -15.40525282	     23.56593091	     -2.19095902	      0.00000000	    -32.15588397	     -5.80137271	     -9.63085757
      5.24500000	     14.39966572	     10.03000449	     -0.01901350	      0.57850422	      0.75513650	     -0.31871046	     11.02493505	    -14.02568698	     -2.72136331	    -67.56032356	     14.00157703	    -12.40204508	      0.00000000	     -9.05468113	     16.62053131	      1.77375652	    -14.82824312	     23.80251720	     -1.89471664	      0.00000000	    -32.10370226	     -5.71802144	    -10.16735606
      5.25000000	     14.34580869	     10.13108298	      0.45717075	      0.58527732	      0.75533582	     -0.31901975	     11.77872713	    -14.07467041	     -2.83876404	    -66.60628329	     14.53947875	    -12.60563727	      0.00000000	     -9.96075397	     16.58698371	      2.19578967	    -14.26861575	     24.06114050	     -1.52028248	      0.00000000	    -32.07120510	     -5.61045695	    -10.72025218
      5.25500000	     14.29688942	     10.22756609	      0.93923690	      0.59204201	      0.75546698	     -0.31930811	     12.48741105	    -14.12780943	     -2.96692995	    -65.55996986	     15.03923270	    -12.77835047	      0.00000000	    -10.86056695	     16.52854259	      2.57376293	    -13.73034119	     24.33744225	     -1.09838738	      0.00000000	    -32.05002387	     -5.50243235	    -11.25061292
      5.26000000	     14.24862861	     10.32704760	      1.43289043	      0.59879534	      0.75552189	     -0.31959529	     13.15386101	    -14.19718253	     -3.10868286	    -64.42506881	     15.51199546	    -12.93290269	      0.00000000	    -11.74575612	     16.45421179	      2.90481950	    -13.22199478	     24.63132389	     -0.63874401	      0.00000000	    -32.03783999	     -5.39451413	    -11.76864905
      5.26500000	     14.21304446	     10.42169255	      1.95038174	      0.60553466	      0.75552696	     -0.31987831	     13.75495133	    -14.27595088	     -3.28264460	    -63.19437342	     15.94031789	    -13.04000699	      0.00000000	    -12.63226517	     16.35141625	      3.21952739	    -12.74244261	     24.95434537	     -0.11850060	      0.00000000	    -32.04866543	     -5.27403899	    -12.27972739
      5.27000000	     14.18654425	     10.51139057	      2.45577214	      0.61226572	      0.75546730	     -0.32013325	     14.30989957	    -14.36172225	     -3.46424272	    -61.87494689	     16.33189279	    -13.11021307	      0.00000000	    -13.51444039	     16.22985855	      3.50355054	    -12.28224440	     25.29219339	      0.43162058	      0.00000000	    -32.07673753	     -5.16013270	    -12.75561753
      5.27500000	     14.14173723	     10.62683056	      2.98179025	      0.61897391	      0.75531318	     -0.32037673	     14.83945013	    -14.49290542	     -3.67977459	    -60.47318698	     16.74391242	    -13.19274972	      0.00000000	    -14.34976594	     16.11837452	      3.75272589	    -11.87847323	     25.62545409	      0.95915726	      0.00000000	    -32.09742294	     -5.06918037	    -13.25296433
      5.28000000	     14.10920436	     10.73478646	      3.51992514	      0.62566528	      0.75511240	     -0.32062022	     15.30542074	    -14.63273918	     -3.92360594	    -58.98058015	     17.11373737	    -13.19325676	      0.00000000	    -15.18574113	     15.98144957	      4.00995828	    -11.49878754	     25.98418856	      1.51812941	      0.00000000	    -32.14120337	     -4.96503784	    -13.72676693
      5.28500000	     14.08432858	     10.85068025	      4.05964813	      0.63233676	      0.75485290	     -0.32084937	     15.71850007	    -14.79608834	     -4.18935512	    -57.40497007	     17.46751984	    -13.13203337	      0.00000000	    -16.01355822	     15.83816956	      4.25947747	    -11.14784932	     26.35177260	      2.08247833	      0.00000000	    -32.20464088	     -4.86948414	    -14.18358041
      5.29000000	     14.05667958	     10.97823458	      4.61309666	      0.63899512	      0.75453053	     -0.32107536	     16.08168611	    -14.98866459	     -4.48999652	    -55.74560686	     17.82198831	    -13.00499641	      0.00000000	    -16.81909658	     15.69232127	      4.49936903	    -10.83811916	     26.72425325	      2.63048380	      0.00000000	    -32.27632649	     -4.78154452	    -14.63766017
      5.29500000	     14.03361349	     11.11223453	      5.16217963	      0.64563879	      0.75415254	     -0.32128996	     16.39214551	    -15.20536620	     -4.82308634	    -54.00375265	     18.16931698	    -12.77784562	      0.00000000	    -17.61156297	     15.54294751	      4.74800536	    -10.56209758	     27.10243113	      3.17162142	      0.00000000	    -32.36297227	     -4.70206574	    -15.07730030
      5.30000000	     14.01180622	     11.25850630	      5.72430577	      0.65227094	      0.75372184	     -0.32149335	     16.64533532	    -15.44887342	     -5.19229933	    -52.18547203	     18.51962774	    -12.43686305	      0.00000000	    -18.39270667	     15.38856588	      4.99655479	    -10.31335993	     27.48919903	      3.69848170	      0.00000000	    -32.46289913	     -4.63198574	    -15.51322818
      5.30500000	     13.98328951	     11.41548805	      6.29802131	      0.65888990	      0.75323600	     -0.32169744	     16.84771309	    -15.71966358	     -5.60595145	    -50.28998914	     18.88693556	    -11.97904347	      0.00000000	    -19.14906024	     15.23104451	      5.25403484	    -10.10239225	     27.87118596	      4.20932038	      0.00000000	    -32.56541770	     -4.56692733	    -15.94507662
      5.31000000	     13.96070533	     11.58350348	      6.87473884	      0.66551497	      0.75271003	     -0.32189695	     16.98351453	    -16.01499602	     -6.06488378	    -48.32144703	     19.26176260	    -11.36194176	      0.00000000	    -19.89817702	     15.07148103	      5.51812967	     -9.92545627	     28.25823507	      4.71225437	      0.00000000	    -32.68215283	     -4.51045835	    -16.37186813
      5.31500000	     13.93002703	     11.76025480	      7.45966501	      0.67214043	      0.75213697	     -0.32208085	     17.06667770	    -16.32704341	     -6.56422970	    -46.28471104	     19.64523178	    -10.60021074	      0.00000000	    -20.62376333	     14.90540453	      5.78525314	     -9.78107506	     28.64166186	      5.19952154	      0.00000000	    -32.79830688	     -4.46178761	    -16.79411695
      5.32000000	     13.95923824	     11.96931842	      8.01509537	      0.67879163	      0.75157053	     -0.32224817	     17.02831842	    -16.67771225	     -7.11124904	    -44.19275986	     20.08539825	     -9.61830966	      0.00000000	    -21.42367612	     14.75513696	      6.04233618	     -9.62162861	     28.98268965	      5.67953054	      0.00000000	    -32.98619276	     -4.44507027	    -17.17990519
      5.32500000	     13.87840338	     12.13971809	      8.64478609	      0.68542626	      0.75089499	     -0.32241759	     17.02868177	    -16.99656418	     -7.72405713	    -42.03076069	     20.43220371	     -8.58287010	      0.00000000	    -22.04416906	     14.55049936	      6.32809831	     -9.59024874	     29.40397918	      6.16192495	      0.00000000	    -33.05807128	     -4.38502769	    -17.61624471
      5.33000000	     13.82721110	     12.33288584	      9.26625192	      0.69210407	      0.75021454	     -0.32257607	     16.93227196	    -17.33759461	     -8.37576961	    -39.83056035	     20.82183102	     -7.33684626	      0.00000000	    -22.70157698	     14.34803526	      6.58768407	     -9.55600925	     29.78768367	      6.64880486	      0.00000000	    -33.16543099	     -4.34602534	    -18.02194187
      5.33500000	     13.82414611	     12.55292464	      9.84962469	      0.69886144	      0.74954491	     -0.32269996	     16.72947106	    -17.69591072	     -9.07850201	    -37.60560055	     21.23207609	     -5.91604621	      0.00000000	    -23.43371411	     14.15601552	      6.85234515	     -9.48436006	     30.13137901	      7.15112454	      0.00000000	    -33.31469542	     -4.33810690	    -18.43131452
      5.34000000	     13.77589287	     12.73869405	     10.46939442	      0.70563132	      0.74883503	     -0.32281008	     16.50191999	    -18.00747605	     -9.82308054	    -35.34116792	     21.57698073	     -4.41189704	      0.00000000	    -24.06385900	     13.91258890	      7.10402954	     -9.51444437	     30.49981511	      7.66015161	      0.00000000	    -33.41432141	     -4.29628632	    -18.82984808
      5.34500000	     13.70666918	     12.90972397	     11.10064515	      0.71244518	      0.74809400	     -0.32288557	     16.23974232	    -18.28451635	    -10.58783019	    -33.07275971	     21.87208445	     -2.83015164	      0.00000000	    -24.64081526	     13.63894491	      7.34118550	     -9.60282780	     30.90462983	      8.18209257	      0.00000000	    -33.48428444	     -4.24932850	    -19.22236166
      5.35000000	     13.65111256	     13.07212115	     11.72262938	      0.71932770	      0.74736422	     -0.32293211	     15.90931453	    -18.53128618	    -11.38480994	    -30.81094854	     22.14441953	     -1.15306380	      0.00000000	    -25.21734275	     13.33851111	      7.56989360	     -9.71603712	     31.27718900	      8.72578802	      0.00000000	    -33.55702704	     -4.19675407	    -19.58809938
      5.35500000	     13.59934137	     13.22178591	     12.32349819	      0.72629643	      0.74663950	     -0.32291556	     15.53552664	    -18.72899158	    -12.17253039	    -28.57791394	     22.35773690	      0.54214201	      0.00000000	    -25.78090830	     13.01455725	      7.78056744	     -9.85305631	     31.61876904	      9.27214107	      0.00000000	    -33.61410529	     -4.14987334	    -19.94214948
      5.36000000	     13.52645714	     13.34233688	     12.93410691	      0.73331435	      0.74590206	     -0.32286880	     15.14571087	    -18.86887491	    -12.94742980	    -26.39085615	     22.51511579	      2.19732346	      0.00000000	    -26.27472220	     12.65096195	      7.98552171	    -10.06932002	     31.98315914	      9.83273302	      0.00000000	    -33.63482741	     -4.08408317	    -20.26980494
      5.36500000	     13.46065692	     13.44368679	     13.52360255	      0.74041762	      0.74518578	     -0.32276745	     14.72416077	    -18.95323956	    -13.69291428	    -24.27496674	     22.61893129	      3.81475809	      0.00000000	    -26.74634679	     12.26005546	      8.17367143	    -10.32867217	     32.31673971	     10.38976982	      0.00000000	    -33.64339603	     -4.01789355	    -20.56500713
